<?xml version="1.0" encoding="utf-8"?>
<!-- Generator: Adobe Illustrator 16.0.0, SVG Export Plug-In . SVG Version: 6.00 Build 0)  -->
<!DOCTYPE svg PUBLIC "-//W3C//DTD SVG 1.1//EN" "http://www.w3.org/Graphics/SVG/1.1/DTD/svg11.dtd">
<svg version="1.1" id="Layer_1" xmlns="http://www.w3.org/2000/svg" xmlns:xlink="http://www.w3.org/1999/xlink" x="0px" y="0px"
	 width="1000px" height="1000px" viewBox="0 0 1000 1000" enable-background="new 0 0 1000 1000" xml:space="preserve">
<g>
	<path fill="#AB1D36" d="M32.172,255.329h107.102c48.301,0,77.001,21.35,77.001,64.401c0,22.4-9.8,40.951-35.351,52.851v0.35
		c28.7,7.7,43.051,32.2,43.051,60.201c0,46.901-37.451,71.751-78.751,71.751H32.172V255.329z M133.674,357.88
		c23.451,0,37.101-11.9,37.101-32.201c0-21.7-15.75-30.801-39.201-30.801H78.724v63.001H133.674z M137.174,465.332
		c24.851,0,40.601-12.25,40.601-35s-14.35-33.25-40.25-33.25H78.724v68.251H137.174z"/>
	<path fill="#AB1D36" d="M246.368,255.329h97.302c54.251,0,98.352,35.351,98.352,91.001v66.501
		c0,59.151-48.651,92.052-98.002,92.052h-97.652V255.329z M342.27,463.932c23.8,0,53.551-12.6,53.551-48.301V343.53
		c0-30.1-25.9-47.25-55.301-47.25h-47.601v167.653H342.27z"/>
	<path fill="#AB1D36" d="M465.117,255.329h97.301c54.252,0,98.353,35.351,98.353,91.001v66.501
		c0,59.151-48.651,92.052-98.002,92.052h-97.652V255.329z M561.019,463.932c23.8,0,53.551-12.6,53.551-48.301V343.53
		c0-30.1-25.9-47.25-55.301-47.25h-47.601v167.653H561.019z"/>
</g>
<g>
	<path fill="#AB1D36" d="M31.615,524.712h31.059c14.78,0,25.919,8.354,25.919,23.991c0,11.674-7.818,23.775-25.169,23.775H45.859
		v28.597H31.615V524.712z M60.961,560.484c8.247,0,13.709-3.963,13.709-11.889c0-8.996-5.998-11.889-13.923-11.889H45.859v23.777
		H60.961z"/>
	<path fill="#AB1D36" d="M94.803,524.712h14.244v63.833h37.165v12.53H94.803V524.712z"/>
	<path fill="#AB1D36" d="M178.125,524.605h13.066l28.167,76.47h-15.101l-5.569-16.279h-29.132l-5.783,16.279h-14.03L178.125,524.605
		z M194.619,572.586l-10.389-30.631h-0.214l-10.496,30.631H194.619z"/>
	<path fill="#AB1D36" d="M226.319,570.444l-25.597-45.732h15.958l17.029,32.023l16.922-32.023h15.208l-25.705,45.946v30.417h-13.816
		V570.444z"/>
	<path fill="#AB1D36" d="M263.697,576.014v-24.42c0-18.1,13.816-28.167,30.524-28.167c14.565,0,29.131,7.176,29.131,24.204v2.357
		h-13.495v-1.071c0-9.96-8.675-12.853-15.637-12.853c-7.283,0-16.387,3.855-16.387,14.78v24.419c0,9.211,7.925,14.459,16.922,14.459
		c8.033,0,15.102-3.855,15.102-13.816v-1.82h-19.707v-12.853h33.202v15.958c0,17.029-14.03,25.169-28.596,25.169
		C278.156,602.36,263.697,593.043,263.697,576.014z"/>
	<path fill="#AB1D36" d="M333.097,524.712H363.3c14.352,0,25.918,8.354,25.918,23.991c0,9.104-4.82,18.527-15.102,22.17
		l18.957,30.202h-15.53l-17.886-28.597h-12.317v28.597h-14.244V524.712z M361.586,560.484c8.247,0,13.709-3.963,13.709-11.889
		c0-8.996-5.998-11.889-13.923-11.889h-14.03v23.777H361.586z"/>
	<path fill="#AB1D36" d="M395.535,576.014v-24.42c0-18.1,15.422-28.167,30.524-28.167c16.601,0,31.059,10.817,31.059,27.847v22.92
		c0,18.1-15.422,28.167-30.524,28.167C409.994,602.36,395.535,593.043,395.535,576.014z M442.981,574.942v-24.419
		c0-9.211-7.926-14.459-16.922-14.459c-7.283,0-16.387,3.855-16.387,14.78v24.419c0,9.211,7.925,14.459,16.922,14.459
		C433.877,589.723,442.981,585.867,442.981,574.942z"/>
	<path fill="#AB1D36" d="M464.721,574.729v-50.017h14.245v48.303c0,9.425,4.498,16.387,15.637,16.387
		c10.389,0,15.637-5.462,15.637-16.387v-48.303h14.245v48.945c0,18.207-12.104,28.597-29.882,28.597
		C476.824,602.254,464.721,593.043,464.721,574.729z"/>
	<path fill="#AB1D36" d="M531.871,524.712h13.816l33.201,52.052h0.215v-52.052h13.709v76.363h-13.924l-33.094-52.158h-0.215v52.158
		h-13.709V524.712z"/>
	<path fill="#AB1D36" d="M600.736,524.712h29.774c16.601,0,30.096,10.817,30.096,27.847v20.35c0,18.1-14.888,28.167-29.988,28.167
		h-29.882V524.712z M630.082,588.545c7.283,0,16.387-3.856,16.387-14.781v-22.063c0-9.211-7.926-14.459-16.922-14.459H614.98v51.303
		H630.082z"/>
</g>
</svg>
