<?xml version="1.0" encoding="utf-8"?>
<!-- Generator: Adobe Illustrator 16.0.0, SVG Export Plug-In . SVG Version: 6.00 Build 0)  -->
<!DOCTYPE svg PUBLIC "-//W3C//DTD SVG 1.1//EN" "http://www.w3.org/Graphics/SVG/1.1/DTD/svg11.dtd">
<svg version="1.1" id="Layer_1" xmlns="http://www.w3.org/2000/svg" xmlns:xlink="http://www.w3.org/1999/xlink" x="0px" y="0px"
	 width="330px" height="600px" viewBox="0 0 330 600" enable-background="new 0 0 330 600" xml:space="preserve">
<g>
	<path fill="#FFFFFF" d="M0,600.469V498.33c0-46.063,20.302-73.434,61.24-73.434c21.301,0,38.941,9.346,50.257,33.713h0.333
		c7.322-27.371,30.62-41.057,57.246-41.057c44.6,0,68.23,35.716,68.23,75.103v107.813H0z M97.519,503.67
		c0-22.363-11.316-35.381-30.621-35.381c-20.635,0-29.289,15.02-29.289,37.385v50.4h59.91V503.67z M199.697,500.332
		c0-23.698-11.65-38.719-33.283-38.719c-21.634,0-31.619,13.686-31.619,38.385v56.076h64.902V500.332z"/>
	<path fill="#FFFFFF" d="M0,396.199v-92.793c0-51.736,33.616-93.794,86.535-93.794h63.237c56.248,0,87.535,46.396,87.535,93.46
		v93.127H0z M198.365,304.742c0-22.698-11.982-51.07-45.93-51.07H83.872c-28.623,0-44.931,24.701-44.931,52.738v45.395h159.424
		V304.742z"/>
	<path fill="#FFFFFF" d="M0,187.587V94.795C0,43.057,33.616,1,86.535,1h63.237c56.248,0,87.535,46.396,87.535,93.461v93.126H0z
		 M198.365,96.129c0-22.696-11.982-51.068-45.93-51.068H83.872c-28.623,0-44.931,24.7-44.931,52.738v45.395h159.424V96.129z"/>
</g>
<g>
	<path fill="#FFFFFF" d="M256.162,600v-29.619c0-14.096,7.945-24.719,22.814-24.719c11.1,0,22.607,7.456,22.607,24.003v16.751
		h27.193V600H256.162z M290.18,572.014c0-7.863-3.77-13.073-11.307-13.073c-8.553,0-11.305,5.72-11.305,13.278v14.197h22.611
		V572.014z"/>
	<path fill="#FFFFFF" d="M256.162,539.74v-13.584h60.699v-35.441h11.916v49.025H256.162z"/>
	<path fill="#FFFFFF" d="M256.061,460.279v-12.461l72.717-26.861v14.4l-15.48,5.312v27.782l15.48,5.515v13.38L256.061,460.279z
		 M301.686,444.551l-29.127,9.907v0.204l29.127,10.01V444.551z"/>
	<path fill="#FFFFFF" d="M299.65,414.318l-43.488,24.411v-15.218l30.451-16.24l-30.451-16.139v-14.504l43.691,24.514h28.924v13.176
		H299.65z"/>
	<path fill="#FFFFFF" d="M304.945,378.673h-23.221c-17.211,0-26.785-13.176-26.785-29.109c0-13.891,6.824-27.782,23.018-27.782h2.24
		v12.87h-1.018c-9.473,0-12.223,8.272-12.223,14.912c0,6.945,3.666,15.627,14.055,15.627h23.221c8.76,0,13.75-7.558,13.75-16.138
		c0-7.66-3.666-14.401-13.139-14.401h-1.73v18.794h-12.223v-31.664h15.176c16.193,0,23.934,13.381,23.934,27.271
		C330,364.885,321.141,378.673,304.945,378.673z"/>
	<path fill="#FFFFFF" d="M256.162,312.488v-28.803c0-13.686,7.945-24.717,22.814-24.717c8.656,0,17.617,4.596,21.082,14.401
		l28.718-18.079v14.811l-27.193,17.057l0.001,11.747h27.193v13.583H256.162z M290.18,285.32c0-7.865-3.77-13.074-11.307-13.074
		c-8.553,0-11.305,5.721-11.305,13.279v13.379h22.611V285.32z"/>
	<path fill="#FFFFFF" d="M304.945,252.944h-23.221c-17.211,0-26.785-14.708-26.785-29.109c0-15.831,10.287-29.62,26.48-29.62h21.794
		c17.212,0,26.785,14.708,26.785,29.109C329.999,239.156,321.14,252.944,304.945,252.944z M303.926,207.697h-23.219
		c-8.76,0-13.75,7.559-13.75,16.138c0,6.945,3.666,15.627,14.055,15.627h23.22c8.76,0,13.75-7.558,13.75-16.138
		C317.981,216.379,314.315,207.697,303.926,207.697z"/>
	<path fill="#FFFFFF" d="M303.724,186.965h-47.562V173.38h45.932c8.962,0,15.582-4.29,15.582-14.912
		c0-9.907-5.193-14.912-15.582-14.912h-45.932v-13.585h46.543c17.313,0,27.193,11.543,27.193,28.497
		C329.898,175.423,321.14,186.965,303.724,186.965z"/>
	<path fill="#FFFFFF" d="M256.162,122.926V109.75l49.496-31.662v-0.205h-49.496V64.809h72.614v13.279l-49.597,31.56v0.205h49.597
		v13.073H256.162z"/>
	<path fill="#FFFFFF" d="M256.162,57.252V28.857c0-15.831,10.287-28.701,26.48-28.701h19.35c17.211,0,26.784,14.198,26.784,28.599
		v28.497H256.162z M316.861,29.267c0-6.946-3.667-15.628-14.056-15.628h-20.979c-8.76,0-13.75,7.559-13.75,16.138v13.892h48.785
		V29.267z"/>
</g>
</svg>
