<?xml version="1.0" encoding="utf-8"?>
<!-- Generator: Adobe Illustrator 16.0.0, SVG Export Plug-In . SVG Version: 6.00 Build 0)  -->
<!DOCTYPE svg PUBLIC "-//W3C//DTD SVG 1.1//EN" "http://www.w3.org/Graphics/SVG/1.1/DTD/svg11.dtd">
<svg version="1.1" xmlns="http://www.w3.org/2000/svg" xmlns:xlink="http://www.w3.org/1999/xlink" x="0px" y="0px" width="800px"
	 height="450px" viewBox="0 0 800 450" enable-background="new 0 0 800 450" xml:space="preserve">
<g id="Layer_5">
	<rect x="-198.999" y="-207" fill="#D5EFF8" width="1199.999" height="800"/>
	<path fill="#F3FAFD" d="M984.684,65.097c-3.557,0.876-6.928,2.508-9.949,4.682c-5.727-7.962-15.947-11.748-27.629-9.071
		c-4.068,0.933-7.963,2.577-11.557,4.762c-1.674-7.154-6.873-12.167-13.766-13.624c0.035-0.633,0.057-1.267,0.057-1.901
		c-0.002-18.315-14.699-29.923-32.877-26.228c-3.834,0.779-7.514,2.185-10.936,4.079c-6.84-16.18-23.803-25.271-43.707-21.703
		c-14.684,2.639-27.813,11.607-36.449,23.61c-3.283-0.783-6.863-0.938-10.619-0.34c-8.064,1.284-15.346,5.752-20.541,11.917
		c-0.676-4.833-4.895-8.002-10.016-7.254c-4.801,0.702-8.813,4.615-9.855,9.247c-3.006-0.426-6.176-0.448-9.457,0.004
		c-10.986,1.516-20.777,7.902-27.125,16.678c-7.148-4.857-16.24-7.198-26.152-6.057c-20.352,2.35-37.313,18.55-40.979,38.138
		c-2.893-2.059-6.582-3.111-10.604-2.734c-0.545,0.05-1.082,0.128-1.611,0.228c-3.277-11.372-14.037-18.947-26.822-17.906
		c-6.334,0.517-12.172,3.072-16.855,6.961c-1.877-7.388-8.715-12.461-16.871-11.912c-2.377,0.16-4.643,0.785-6.707,1.777
		c-2.6-8.016-10.301-13.458-19.4-12.944c-9.225,0.524-17.014,7.004-19.508,15.484c-3.295-0.922-6.814-1.351-10.477-1.189
		c-18.443,0.816-33.402,16.081-33.402,34.396c0,0.889,0.045,1.766,0.115,2.636c-2.811-0.715-5.773-1.068-8.842-0.987
		c-5.723,0.152-11.09,1.771-15.736,4.476c-0.584-22.129-18.838-39.49-41.289-39.43c-20.221,0.066-37.037,14.242-40.608,33.225
		c-3.584-2.799-8.041-4.549-12.889-4.776c-7.176-32.509-36.253-57.296-71.009-59.008c-17.301-0.841-33.179,4.196-45.648,13.372
		c-6.515-10.106-17.6-17.251-30.175-18.263c-12.611-1.011-23.709,4.388-30.206,13.493c-4.319-3.972-9.868-6.648-15.919-7.252
		c-9.189-0.915-17.208,3.182-21.528,10.081c-14.336-1.052-26.939,4.646-34.773,14.544c-3.544-3.479-8.15-5.897-13.189-6.548
		c-4.214-0.544-8.126,0.226-11.365,1.992c-8.745-15.405-24.465-27.066-42.379-29.794c-13.411-2.036-25.557,1.324-34.474,8.483
		c-3.695-5.172-9.329-9.034-15.638-10.13c-4.02-0.698-7.759-0.171-10.899,1.302C-26.74,13.95-45.004,0.38-65.597-3.749
		c-23.649-4.725-44.106,4.245-54.303,21.694c-2.583-1.159-5.263-2.08-8.016-2.706c-20.343-4.63-36.78,7.986-36.78,28.56
		c0,0.402,0.017,0.803,0.029,1.204c-2.145-1.296-4.452-2.287-6.857-2.882C-182.842,39.32-192,46.265-192,57.749
		c0,54.563,0,251.745,0,306.31c393.616,101.063,806.382,101.063,1200,0c0-46.178,0-234.975,0-281.153
		C1008,69.83,997.572,61.926,984.684,65.097z"/>
	<g>
		<polygon fill="#B4E2EB" points="783.417,244.868 784.613,202.467 748.337,202.467 748.337,141.088 726.8,141.088 726.8,154.136 
			705.261,154.136 705.261,166.081 683.724,166.081 683.724,227.666 667.165,227.666 667.165,199.032 661.267,199.032 
			661.267,195.875 622.85,195.875 622.85,199.032 616.952,199.032 616.952,258.738 604.944,258.738 604.944,182.004 
			599.045,182.004 599.045,178.847 560.629,178.847 560.629,182.004 554.729,182.004 554.729,226.19 541.659,226.19 
			541.659,199.032 535.762,199.032 535.762,195.875 497.345,195.875 497.345,199.032 491.445,199.032 491.445,209.255 
			479.116,220.503 479.116,239.359 462.631,239.359 462.631,227.666 454.122,227.666 454.122,199.032 422.745,199.032 
			422.745,182.081 409.367,172.412 409.367,144.967 395.31,144.967 395.31,118.219 392.131,118.219 392.131,144.967 380,144.967 
			380,249.051 359.61,249.051 359.61,216.998 349.889,216.998 349.889,209.255 328.617,216.998 323.407,216.998 323.407,197.741 
			297.958,169.834 272.509,197.741 272.509,263.225 260.563,263.225 260.563,275.949 242.933,275.949 242.933,224.015 
			228.325,224.015 228.932,202.467 212.028,202.467 212.028,196.295 194.899,196.295 192.264,158.974 189.629,196.295 
			186.335,196.295 186.335,202.467 181.889,202.467 183.516,260.176 180.36,260.176 180.36,234.715 144.943,216.998 
			144.943,249.051 109.526,249.051 109.526,224.015 87.665,224.015 87.665,209.255 50.214,231.655 50.214,209.255 0,239.289 
			0,458.771 37.45,458.771 50.214,458.771 86.069,458.771 87.665,458.771 109.526,458.771 144.943,458.771 180.36,458.771 
			187.701,458.771 219.475,458.771 223.118,458.771 240.887,458.771 242.933,458.771 272.509,458.771 291.785,458.771 
			323.407,458.771 359.61,458.771 378.074,458.771 409.367,458.771 422.745,458.771 454.122,458.771 462.631,458.771 
			491.445,458.771 507.134,458.771 532.479,458.771 541.659,458.771 554.729,458.771 576.982,458.771 582.692,458.771 
			604.944,458.771 616.952,458.771 627.196,458.771 667.165,458.771 683.724,458.771 705.261,458.771 726.8,458.771 
			743.382,458.771 748.337,458.771 772.393,458.771 778.799,458.771 800.473,458.771 800.473,244.868 		"/>
		<polygon fill="#9BD3DD" points="763.022,327.007 763.022,276.06 702.676,225.876 702.676,334.131 690.946,334.131 
			690.946,359.168 655.529,359.168 655.529,327.115 620.112,344.832 620.112,370.293 615.714,370.293 618.585,298.109 
			613.698,298.109 613.698,291.326 610.078,291.326 604.286,291.326 585.461,291.326 585.461,298.109 566.882,298.109 
			567.823,321.791 551.494,321.791 551.494,386.066 541.038,386.066 541.038,269.107 509.053,234.032 477.066,269.107 
			477.066,327.115 471.856,327.115 450.584,319.372 450.584,327.115 440.862,327.115 440.862,359.168 422.399,359.168 
			422.399,255.084 391.106,255.084 391.106,282.529 380,292.196 380,309.15 346.352,309.15 346.352,337.782 337.843,337.782 
			337.843,349.476 305.496,349.476 305.496,330.62 293.167,319.372 293.167,309.15 287.268,309.15 287.268,305.991 248.852,305.991 
			248.852,309.15 242.953,309.15 242.953,336.308 235.777,336.308 235.777,286.579 228.494,286.579 228.494,282.68 181.057,282.68 
			181.057,286.579 173.773,286.579 173.773,368.855 167.661,368.855 167.661,309.15 161.763,309.15 161.763,305.991 
			123.346,305.991 123.346,309.15 117.448,309.15 117.448,337.782 113.26,337.782 113.26,309.495 83.602,309.495 83.485,233.677 
			83.485,218.949 56.931,218.949 56.931,202.862 30.375,202.862 30.375,232.641 0,270.68 0,354.985 0,354.985 0,508.947 
			21.675,508.947 28.08,508.947 57.092,508.947 72.791,508.947 99.347,508.947 116.75,508.947 133.308,508.947 173.278,508.947 
			183.522,508.947 189.634,508.947 189.634,509 251.638,509 251.638,508.947 258.813,508.947 267.995,508.947 293.34,508.947 
			309.027,508.947 337.843,508.947 346.352,508.947 377.728,508.947 391.106,508.947 422.399,508.947 440.862,508.947 
			477.066,508.947 508.689,508.947 541.038,508.947 559.588,508.947 573.271,508.947 577.275,508.947 612.195,508.947 
			612.771,508.947 620.112,508.947 655.529,508.947 690.946,508.947 702.676,508.947 714.404,508.947 750.26,508.947 
			763.022,508.947 800.473,508.947 800.473,349.407 		"/>
	</g>
</g>
<g id="Layer_1" display="none">
	<rect x="26.75" y="249.875" display="inline" fill="none" width="225" height="76.25"/>
	<text transform="matrix(1 0 0 1 26.75 321.1748)" display="inline" font-family="'Flama-Medium'" font-size="100">BDD</text>
	<rect x="29.75" y="327.25" display="inline" fill="none" width="332.5" height="38.125"/>
	<text transform="matrix(1 0 0 1 29.75 362.9004)" display="inline" font-family="'Flama-Medium'" font-size="50">PLAYGROUND</text>
</g>
<g id="Layer_3" display="none">
	<g display="inline">
		<path d="M30,301.196h30.602c13.801,0,22.001,6.1,22.001,18.4c0,6.4-2.8,11.701-10.101,15.102v0.1
			c8.2,2.2,12.301,9.2,12.301,17.201c0,13.4-10.701,20.501-22.501,20.501H30V301.196z M59.002,330.497
			c6.701,0,10.601-3.4,10.601-9.2c0-6.2-4.5-8.801-11.201-8.801H43.301v18.001H59.002z M60.002,361.199
			c7.101,0,11.601-3.5,11.601-10.001c0-6.5-4.1-9.5-11.5-9.5H43.301v19.501H60.002z"/>
		<path d="M96.199,301.196H124c15.501,0,28.102,10.1,28.102,26.001v19.001c0,16.901-13.901,26.302-28.002,26.302H96.199V301.196z
			 M123.601,360.799c6.8,0,15.301-3.6,15.301-13.801v-20.601c0-8.601-7.4-13.501-15.801-13.501H109.5v47.902H123.601z"/>
		<path d="M164.698,301.196H192.5c15.501,0,28.102,10.1,28.102,26.001v19.001c0,16.901-13.901,26.302-28.002,26.302h-27.902V301.196
			z M192.1,360.799c6.8,0,15.301-3.6,15.301-13.801v-20.601c0-8.601-7.4-13.501-15.801-13.501H178v47.902H192.1z"/>
	</g>
	<g display="inline">
		<path d="M30,383.748h14.501c6.9,0,12.101,3.9,12.101,11.2c0,5.45-3.65,11.101-11.75,11.101H36.65V419.4H30V383.748z
			 M43.701,400.449c3.85,0,6.4-1.851,6.4-5.551c0-4.2-2.8-5.551-6.5-5.551H36.65v11.102H43.701z"/>
		<path d="M61.5,383.748h6.65v29.801h17.351v5.852H61.5V383.748z"/>
		<path d="M101.649,383.697h6.101l13.151,35.703h-7.051l-2.6-7.602H97.649l-2.7,7.602h-6.551L101.649,383.697z M109.35,406.1
			l-4.851-14.301h-0.1L99.5,406.1H109.35z"/>
		<path d="M129.649,405.1l-11.951-21.352h7.451l7.95,14.951l7.9-14.951h7.101l-12,21.451V419.4h-6.451V405.1z"/>
		<path d="M149.599,407.699v-11.4c0-8.451,6.45-13.151,14.251-13.151c6.8,0,13.601,3.351,13.601,11.301v1.101h-6.3v-0.5
			c0-4.65-4.05-6.001-7.3-6.001c-3.4,0-7.65,1.8-7.65,6.9v11.401c0,4.3,3.7,6.75,7.9,6.75c3.75,0,7.05-1.801,7.05-6.45v-0.851
			h-9.201v-6h15.501v7.45c0,7.95-6.55,11.751-13.351,11.751C156.35,420,149.599,415.65,149.599,407.699z"/>
		<path d="M183.749,383.748h14.101c6.7,0,12.101,3.9,12.101,11.2c0,4.251-2.25,8.651-7.05,10.351l8.851,14.102h-7.25l-8.351-13.352
			h-5.75V419.4h-6.65V383.748z M197.049,400.449c3.851,0,6.4-1.851,6.4-5.551c0-4.2-2.8-5.551-6.5-5.551h-6.551v11.102H197.049z"/>
		<path d="M215.398,407.699v-11.4c0-8.451,7.2-13.151,14.251-13.151c7.75,0,14.501,5.051,14.501,13.001v10.701
			c0,8.45-7.201,13.15-14.251,13.15C222.148,420,215.398,415.65,215.398,407.699z M237.549,407.199v-11.4
			c0-4.301-3.7-6.751-7.9-6.751c-3.4,0-7.65,1.8-7.65,6.9v11.401c0,4.3,3.7,6.75,7.9,6.75
			C233.299,414.1,237.549,412.299,237.549,407.199z"/>
		<path d="M250.198,407.1v-23.352h6.65v22.551c0,4.4,2.1,7.65,7.301,7.65c4.85,0,7.3-2.55,7.3-7.65v-22.551h6.65V406.6
			c0,8.5-5.65,13.35-13.951,13.35C255.848,419.949,250.198,415.65,250.198,407.1z"/>
		<path d="M285.047,383.748h6.451l15.501,24.301h0.1v-24.301h6.4V419.4h-6.5l-15.451-24.352h-0.1V419.4h-6.4V383.748z"/>
		<path d="M320.697,383.748h13.901c7.75,0,14.051,5.05,14.051,13v9.501c0,8.45-6.95,13.151-14,13.151h-13.951V383.748z
			 M334.398,413.549c3.4,0,7.65-1.799,7.65-6.9v-10.3c0-4.3-3.7-6.751-7.9-6.751h-6.801v23.951H334.398z"/>
	</g>
</g>
<g id="Layer_2" display="none">
	<polygon display="inline" points="30,290 220,290 430,420 480,420 480,380 260,240 220,240 220,160 125,110 30,160 	"/>
</g>
<g id="Layer_4" display="none">
	<g display="inline">
		<path d="M30,285c0,2.75,2.25,5,5,5h180c2.75,0,6.913,1.185,9.251,2.632l201.143,125.421C427.928,419.124,432.25,420,435,420h60
			c2.75,0,5-2.25,5-5v-10c0-2.75-1.591-6.591-3.535-8.535l-12.93-12.93c-1.944-1.944-5.58-4.474-8.079-5.62l-211.194-130.3
			c-2.344-1.438-6.391-3.342-8.994-4.23c0,0-9.917-3.385-15.268-3.385c-19,0-19,0-19,0c-0.55,0-1-2.25-1-5v-70
			c0-2.75-1.991-6.048-4.425-7.329l-86.15-45.343c-2.434-1.281-6.416-1.281-8.85,0l-86.15,45.343C31.991,158.952,30,162.25,30,165
			V285z"/>
	</g>
</g>
<g id="Layer_6" display="none">
	<rect x="380" y="30" display="inline" opacity="0.7" fill="#FFFFFF" width="390" height="390"/>
</g>
<g id="Layer_7" display="none">
	<g display="inline">
		<rect x="510" y="60" fill="#E6E7E8" width="230" height="30"/>
		<rect x="410" y="60" fill="#71CFEB" width="100" height="30"/>
	</g>
	<g display="inline">
		<rect x="510" y="110" fill="#E6E7E8" width="230" height="30"/>
		<rect x="410" y="110" fill="#71CFEB" width="100" height="30"/>
	</g>
	<g display="inline">
		<rect x="510" y="160" fill="#E6E7E8" width="230" height="30"/>
		<rect x="410" y="160" fill="#71CFEB" width="100" height="30"/>
	</g>
	<rect x="640" y="210" display="inline" width="100" height="30"/>
	<rect x="380" y="280" display="inline" opacity="0.4" fill="#D1D3D4" width="390" height="140"/>
</g>
<g id="Layer_8" display="none">
	<rect x="410" y="60" display="inline" fill="none" width="100" height="30"/>
	<text transform="matrix(1 0 0 1 443.7676 80)" display="inline" font-family="'RobotoCondensed-Regular'" font-size="14">Name</text>
	<rect x="410" y="110" display="inline" fill="none" width="100" height="30"/>
	<text transform="matrix(1 0 0 1 420.8203 130)" display="inline" font-family="'RobotoCondensed-Regular'" font-size="14">Geburtsdatum</text>
	<rect x="410" y="160" display="inline" fill="none" width="100" height="30"/>
	<text transform="matrix(1 0 0 1 433.3027 180)" display="inline" font-family="'Roboto-Medium'" font-size="14">Wohnort</text>
	<rect x="640" y="210" display="inline" fill="none" width="100" height="30"/>
	
		<text transform="matrix(1 0 0 1 660.8311 230)" display="inline" fill="#F1F2F2" font-family="'RobotoCondensed-Regular'" font-size="14">Berechnen</text>
	<rect x="380" y="280" display="inline" fill="none" width="390" height="140"/>
	<text transform="matrix(1 0 0 1 427.3652 380)" display="inline" font-family="'RobotoCondensed-Bold'" font-size="90">235,34€</text>
</g>
</svg>
