<?xml version="1.0" encoding="utf-8"?>
<!-- Generator: Adobe Illustrator 16.0.0, SVG Export Plug-In . SVG Version: 6.00 Build 0)  -->
<!DOCTYPE svg PUBLIC "-//W3C//DTD SVG 1.1//EN" "http://www.w3.org/Graphics/SVG/1.1/DTD/svg11.dtd">
<svg version="1.1" id="Layer_1" xmlns="http://www.w3.org/2000/svg" xmlns:xlink="http://www.w3.org/1999/xlink" x="0px" y="0px"
	 width="256px" height="295px" viewBox="0 0 256 295" enable-background="new 0 0 256 295" xml:space="preserve">
<path fill="#FFFFFF" d="M193.777,17.327c-2.337-1.382-4.712-2.753-7.158-3.96c-2.492-1.229-5.051-2.428-7.652-3.465
	c-0.826-0.346-1.635-0.661-2.469-0.99c-2.271-0.841-4.563-1.788-6.912-2.475C156.93,2.252,143.398,0,129.35,0
	C57.857,0,0,58.018,0,129.708c0,63.118,45.121,115.563,104.665,127.232v37.13c77.414-11.703,145.958-73.324,151.074-154.213
	C258.816,91.168,234.607,41.463,193.777,17.327z M98.513,48.671c4.336-0.414,8.855,1.091,12.12,4.96
	c2.375,2.381,3.859,5.506,5.442,8.682c4.749,11.112,3.117,23.018-3.215,31.749c-11.082-2.381-21.223-9.475-25.972-20.587
	c-1.583-3.175-2.474-7.243-2.474-10.417C84.414,55.12,91.286,49.361,98.513,48.671z M59.679,86.869c0.832-0.043,1.583-0.1,2.474,0
	c3.958,0,7.173,0.893,11.131,2.48c11.082,4.762,19.145,14.237,21.52,24.556c-9.498,6.35-22.311,7.987-33.393,3.224
	c-3.166-1.587-6.233-3.324-9.399-5.705C41.622,103.239,47.197,87.511,59.679,86.869z M73.283,166.241
	c-3.166,1.587-7.173,2.48-11.131,2.48c-14.248,0.794-21.173-15.825-10.884-24.556c2.375-2.381,5.442-4.117,9.399-5.705
	c4.156-1.786,8.512-2.645,12.862-2.729c7.251-0.14,14.347,1.984,20.283,5.953C92.23,152.004,84.365,161.479,73.283,166.241z
	 M116.817,191.789c-1.583,3.175-3.067,6.25-5.442,9.426c-7.915,10.318-26.269,3.075-25.478-10.418c0-3.175,0.891-6.994,2.474-10.17
	c4.749-11.111,14.148-18.205,25.23-20.587C119.934,169.564,121.566,181.471,116.817,191.789z M138.337,62.313
	c1.583-3.175,3.067-6.251,5.442-9.426c3.265-3.869,7.934-5.417,12.367-4.96c7.39,0.759,14.346,6.697,13.852,15.13
	c0,3.175-0.891,7.242-2.473,10.417c-4.75,11.112-14.149,18.206-25.23,20.587C135.171,85.331,133.588,73.425,138.337,62.313z
	 M145.263,201.215c-2.374-2.382-3.858-5.507-5.441-8.682c-4.749-11.112-3.116-23.018,3.216-31.749
	c11.081,2.382,21.223,9.476,25.972,20.587c1.583,3.176,2.474,7.243,2.474,10.418C172.273,203.695,153.97,210.739,145.263,201.215z
	 M193.744,167.978c-3.957,0-7.174-0.894-11.131-2.48c-11.082-4.763-19.145-14.237-21.52-24.556
	c5.936-3.969,13.279-6.093,20.53-5.953c4.351,0.084,8.706,0.942,12.862,2.729c3.166,1.587,6.232,3.076,9.399,5.457
	C214.967,151.111,207.992,168.771,193.744,167.978z"/>
</svg>
